# xmcd
#
# Track frame offsets: 
#        150
#        14848
#        35600
#        58802
#        81076
#        105510
#        125464
#        149171
#        177205
#        204057
#        217220
#        240398
#        266733
#        285321
#
# Disc length: 4097 seconds
#
# Revision: 2
# Processed by: cddbd v1.5.2PL0 Copyright (c) Steve Scherf et al.
# Submitted via: ExactAudioCopy v1.3
#
DISCID=d10fff0e
DTITLE=Bill Evans - 7 Classic Albums - Portrait In Jazz
DYEAR=1960
DGENRE=Jazz
TTITLE0=Peris Scope
TTITLE1=What Is This Thing Called Love
TTITLE2=Spring Is Here
TTITLE3=Some Day My Prince Will Come
TTITLE4=Blue In Green (Take 3)
TTITLE5=Blue In Green (Take 2, Mono)
TTITLE6=Waltz For Debby
TTITLE7=Goodbye
TTITLE8=Who Cares (Take 5)
TTITLE9=Venice
TTITLE10=Toy
TTITLE11=Elsa
TTITLE12=Nancy (With The Laughing Face)
TTITLE13=Know What I Mean (Retake 7)
EXTD=
EXTT0=
EXTT1=
EXTT2=
EXTT3=
EXTT4=
EXTT5=
EXTT6=
EXTT7=
EXTT8=
EXTT9=
EXTT10=
EXTT11=
EXTT12=
EXTT13=
PLAYORDER=
